#N canvas 126 8 849 650 10;
#X msg 494 -70 attack \$1;
#X msg 494 -28 decay \$1;
#X msg 494 54 release \$1;
#X msg 494 13 sustain \$1;
#X msg 494 100 attack-curve \$1;
#X msg 494 143 decay-curve \$1;
#X msg 494 185 release-curve \$1;
#X floatatom 494 -90 5 0 1e+008 0 - #0-attack -;
#X floatatom 494 -48 5 0 1e+009 0 - #0-decay -;
#X floatatom 494 -7 5 0 100 0 - #0-sustain -;
#X floatatom 494 34 5 0 1e+009 0 - #0-release -;
#X floatatom 494 80 5 0 0 0 - #0-a-curve -;
#X floatatom 494 122 5 0 0 0 - #0-d-curve -;
#X floatatom 494 164 5 0 0 0 - #0-r-curve -;
#X obj 207 82 f;
#N canvas 0 0 450 300 (subpatch) 0;
#X array \$0-ADSRenv 44100 float 2;
#X coords 0 1 44100 0 200 140 1 0 0;
#X restore 391 253 graph;
#X obj 222 50 / 100;
#X floatatom 222 30 5 0 100 0 - #0-peak -;
#X obj 114 254 *~;
#X obj 115 326 dac~;
#X obj 139 -3 tgl 15 0 empty empty empty 17 7 0 10 -262144 -1 -1 0
1;
#X obj 139 28 sel 1;
#X text 388 390 0;
#X text 159 -2 trigger;
#X text 587 390 1000 ms;
#X text 259 29 peak level;
#X obj 207 202 cadsr~ 100 100 50 500 50 -30 -40;
#X floatatom 207 164 5 0 0 0 - - -;
#N canvas 780 215 450 300 init 0;
#X obj 199 52 f \$0;
#X obj 199 9 loadbang;
#X msg 199 76 \; \$1-attack 100 \; \$1-decay 100 \; \$1-sustain 50
\; \$1-release 500 \; \$1-a-curve 50 \; \$1-d-curve -30 \; \$1-r-curve
-40 \; \$1-peak 80;
#X msg 261 28 \; pd dsp 1;
#X connect 0 0 2 0;
#X connect 1 0 0 0;
#X connect 1 0 3 0;
#X restore 668 -218 pd init;
#X obj 207 244 tabwrite~ \$0-ADSRenv;
#X text 89 -159 arguments(optional):;
#X text 215 -159 attack \, decay \, sustain \, release \, attack-curve
\, decay-curve \,;
#X text 573 -159 release-curve;
#X text 89 -123 attack- \, decay- \, release- time are in ms \, sustain
in percent;
#X obj 114 215 osc~ 261.6;
#X text 90 -181 cadsr~ curved ADSR-envelope generator;
#X obj 115 296 *~ 0.5;
#X connect 0 0 26 1;
#X connect 1 0 26 1;
#X connect 2 0 26 1;
#X connect 3 0 26 1;
#X connect 4 0 26 1;
#X connect 5 0 26 1;
#X connect 6 0 26 1;
#X connect 7 0 0 0;
#X connect 8 0 1 0;
#X connect 9 0 3 0;
#X connect 10 0 2 0;
#X connect 11 0 4 0;
#X connect 12 0 5 0;
#X connect 13 0 6 0;
#X connect 14 0 27 0;
#X connect 16 0 14 1;
#X connect 17 0 16 0;
#X connect 18 0 36 0;
#X connect 20 0 21 0;
#X connect 21 0 14 0;
#X connect 21 0 29 0;
#X connect 21 1 27 0;
#X connect 26 0 18 1;
#X connect 26 0 29 0;
#X connect 27 0 26 0;
#X connect 34 0 18 0;
#X connect 36 0 19 0;
#X connect 36 0 19 1;
