#N canvas 260 319 450 300 10;
#X obj 149 75 inlet~;
#X obj 149 96 outlet~;
#X obj 214 160 delread~ \$0-del 1000;
#X obj 214 181 outlet~;
#X obj 214 118 loadbang;
#X obj 214 139 \$1;
#X obj 360 110 inlet;
#X obj 210 97 delwrite~ \$0-del 10000;
#X connect 0 0 1 0;
#X connect 0 0 7 0;
#X connect 2 0 3 0;
#X connect 4 0 5 0;
#X connect 5 0 2 0;
#X connect 6 0 2 0;
