#N canvas 505 71 616 675 12;
#N canvas 0 22 450 278 (subpatch) 0;
#X array sine-\$1 147 float 0;
#X coords 0 1.1 146 -1.1 100 70 1 0 0;
#X restore 262 131 graph;
#X obj 38 158 t b f, f 10;
#X floatatom 38 129 5 0 0 0 - - -;
#X text 15 36 SINE WAVE;
#X obj 55 202 osc~ 400;
#X obj 93 298 *~;
#X obj 38 98 inlet;
#X obj 137 248 inlet;
#X obj 710 124 cnv 15 100 60 empty empty empty 20 12 0 14 -233017 -66577
0;
#X obj 97 39 notein;
#X obj 97 110 mtof;
#X obj 37 405 tabwrite~ sine-\$1;
#X obj 93 325 throw~ osc2-\$1;
#X obj 97 78 stripnote;
#X floatatom 157 111 5 0 0 0 - - -;
#X connect 1 0 11 0;
#X connect 1 1 4 0;
#X connect 2 0 1 0;
#X connect 4 0 5 0;
#X connect 4 0 11 0;
#X connect 5 0 12 0;
#X connect 6 0 2 0;
#X connect 7 0 5 1;
#X connect 9 0 13 0;
#X connect 9 1 13 1;
#X connect 10 0 2 0;
#X connect 13 0 10 0;
#X connect 13 1 14 0;
#X coords 0 -1 1 1 100 70 2 262 131;
