#N canvas 392 102 974 644 12;
#N canvas 504 181 450 278 (subpatch) 0;
#X array square-\$1 147 float 0;
#X coords 0 1.1 146 -1.1 100 70 1 0 0;
#X restore 325 183 graph;
#X obj 82 205 t b f, f 10;
#X obj 101 329 *~ 1000;
#X obj 101 357 clip~ -1 1;
#X text 19 17 SQUARE WAVE BY CLIPPING;
#X floatatom 80 168 5 0 0 0 - - -;
#X obj 101 302 osc~ 440;
#X obj 78 127 inlet;
#X obj 222 373 inlet;
#X obj 173 396 *~;
#X obj 654 138 cnv 15 100 60 empty empty empty 20 12 0 14 -233017 -66577
0;
#X obj 145 63 notein;
#X obj 145 141 mtof;
#X obj 13 455 tabwrite~ square-\$1;
#X obj 158 430 throw~ osc3-\$1;
#X obj 145 104 stripnote;
#X floatatom 205 141 5 0 0 0 - - -;
#X connect 1 0 13 0;
#X connect 1 1 6 0;
#X connect 2 0 3 0;
#X connect 3 0 9 0;
#X connect 3 0 13 0;
#X connect 5 0 1 0;
#X connect 6 0 2 0;
#X connect 7 0 5 0;
#X connect 8 0 9 1;
#X connect 9 0 14 0;
#X connect 11 0 15 0;
#X connect 11 1 15 1;
#X connect 12 0 5 0;
#X connect 15 0 12 0;
#X connect 15 1 16 0;
#X coords 0 -1 1 1 100 70 2 325 183;
