#N canvas 384 95 723 651 12;
#X floatatom 568 79 5 100 10000 2 Freq - -;
#X floatatom 572 166 5 100 10000 2 Freq - -;
#X floatatom 573 251 5 100 10000 2 Freq - -;
#X obj 367 412 line~;
#X obj 367 389 dbtorms;
#X obj 610 254 tgl 15 0 empty empty empty 17 7 0 10 -262144 -1 -1 0
1;
#X obj 609 82 tgl 15 0 empty empty empty 17 7 0 10 -262144 -1 -1 0
1;
#X obj 610 169 tgl 15 0 empty empty empty 17 7 0 10 -262144 -1 -1 0
1;
#X obj 334 431 *~;
#X floatatom 607 321 5 0 100 1 Vol - -;
#X obj 469 97 triwaveosc \$1;
#X obj 470 184 sinewaveosc \$1;
#X obj 470 269 squarewaveosc \$1;
#X obj 334 478 outlet~;
#X obj 306 229 catch~ osc1-\$1;
#X obj 325 255 catch~ osc2-\$1;
#X obj 334 281 catch~ osc3-\$1;
#X connect 0 0 10 0;
#X connect 1 0 11 0;
#X connect 2 0 12 0;
#X connect 3 0 8 1;
#X connect 4 0 3 0;
#X connect 5 0 12 1;
#X connect 6 0 10 1;
#X connect 7 0 11 1;
#X connect 8 0 13 0;
#X connect 9 0 4 0;
#X connect 14 0 8 0;
#X connect 15 0 8 0;
#X connect 16 0 8 0;
#X coords 0 -1 1 1 200 283 2 468 63;
