#N canvas 764 23 574 723 12;
#X obj 74 30 cnv 15 200 283 empty empty empty 20 12 0 14 -261682 -66577
0;
#X obj 275 30 cnv 15 200 283 empty empty empty 20 12 0 14 -204786 -66577
0;
#X obj 75 339 *~ 0.6;
#X obj 275 337 *~ 0.6;
#X obj 75 379 crossfade~;
#X obj 230 365 hsl 128 15 0 127 0 0 empty empty empty -2 -8 0 10 -228856
-1 -1 4300 1;
#X obj 74 30 sumofwaves 1;
#X text 77 6 OSC 1;
#X text 277 10 OSC 2;
#X obj 97 680 dac~;
#X msg 177 392 300;
#X obj 109 409 echo~ 300;
#X obj 76 458 hip~ 50;
#X obj 139 443 hsl 128 15 300 10000 0 0 empty empty empty -2 -8 0 10
-203904 -1 -1 0 1;
#X obj 76 505 record_stereo~;
#X obj 62 582 stereoscope~;
#X obj 177 459 tgl 15 0 empty empty empty 17 7 0 10 -262144 -1 -1 1
1;
#X obj 177 475 tgl 15 0 empty empty empty 17 7 0 10 -262144 -1 -1 1
1;
#X obj 177 490 tgl 15 0 empty empty empty 17 7 0 10 -262144 -1 -1 0
1;
#X obj 275 30 sumofwaves 2;
#X connect 2 0 4 0;
#X connect 3 0 4 1;
#X connect 4 0 11 0;
#X connect 4 0 12 0;
#X connect 5 0 4 2;
#X connect 6 0 2 0;
#X connect 10 0 11 1;
#X connect 11 0 12 0;
#X connect 11 1 12 0;
#X connect 12 0 14 0;
#X connect 12 0 14 1;
#X connect 13 0 12 1;
#X connect 14 0 15 0;
#X connect 14 1 15 1;
#X connect 15 0 9 0;
#X connect 15 1 9 1;
#X connect 16 0 14 2;
#X connect 17 0 14 3;
#X connect 18 0 14 4;
#X connect 19 0 3 0;
