#N canvas 0 221 752 457 12;
#N canvas 0 23 719 407 (subpatch) 0;
#X array tri-\$1 147 float 0;
#X coords 0 1.1 146 -1.1 100 70 1 400 200;
#X restore 385 126 graph;
#X obj 161 138 t b f, f 13;
#X obj 175 165 phasor~ 400;
#X obj 175 189 *~ 2;
#X obj 175 213 -~ 1;
#X obj 175 262 *~ 2;
#X obj 175 286 -~ 1;
#X text 234 213 triangular wave;
#X floatatom 161 103 5 0 200 0 - - -;
#X obj 283 250 inlet;
#X obj 208 333 *~;
#X obj 160 59 inlet;
#X obj 548 241 cnv 15 100 60 empty empty empty 20 12 0 14 -233017 -66577
0;
#X obj 253 81 mtof;
#X obj 253 18 notein;
#X obj 175 238 expr~ abs($v1);
#X obj 50 431 tabwrite~ tri-\$1;
#X obj 193 360 throw~ osc1-\$1;
#X obj 253 50 stripnote;
#X floatatom 310 83 5 0 0 0 - - -;
#X connect 1 0 16 0;
#X connect 1 1 2 0;
#X connect 2 0 3 0;
#X connect 3 0 4 0;
#X connect 4 0 15 0;
#X connect 5 0 6 0;
#X connect 6 0 10 0;
#X connect 6 0 16 0;
#X connect 8 0 1 0;
#X connect 9 0 10 1;
#X connect 10 0 17 0;
#X connect 11 0 8 0;
#X connect 13 0 8 0;
#X connect 14 0 18 0;
#X connect 14 1 18 1;
#X connect 15 0 5 0;
#X connect 18 0 13 0;
#X connect 18 1 19 0;
#X coords 0 -1 1 1 100 70 2 385 126;
